<?xml version="1.0" encoding="UTF-8" standalone="no"?>
<svg width="300px" height="268px" viewBox="0 0 300 268" version="1.1" xmlns="http://www.w3.org/2000/svg" xmlns:xlink="http://www.w3.org/1999/xlink">
    <!-- Generator: Sketch 39 (31667) - http://www.bohemiancoding.com/sketch -->
    <title>panza-icon</title>
    <desc>Created with Sketch.</desc>
    <defs></defs>
    <g id="Page-1" stroke="none" stroke-width="1" fill="none" fill-rule="evenodd">
        <g id="logo" transform="translate(-92.000000, -44.000000)">
            <g id="panza-icon" transform="translate(92.000000, 44.000000)">
                <path d="M141.327904,62.1927003 C152.367782,60.0619468 164.099153,60.6907594 174.607422,64.852137 C180.738912,67.3433564 186.462701,70.9199784 191.199217,75.5699874 C198.573792,82.759278 203.70202,92.1994773 205.856435,102.272494 C207.886941,112.357527 207.219432,123.003284 203.805943,132.715835 C200.580316,141.847636 194.832544,150.13835 187.13021,156.037974 C180.395165,161.292765 172.285131,164.837345 163.791379,165.86267 C156.188972,166.811897 148.206843,166.483472 141.060101,163.491606 C138.406053,162.390183 135.851932,160.984366 133.565614,159.234104 C133.593593,176.488402 133.573608,193.742699 133.577605,210.996996 C122.385838,211.001001 111.194071,211.001001 100.002304,210.996996 C100.006301,178.763341 99.9903125,146.525682 100.010298,114.292027 C100.10223,106.409841 101.461231,98.459567 104.822758,91.2862972 C108.831809,82.2345999 115.550866,74.3804502 123.976668,69.1857372 C129.292757,65.8614413 135.168435,63.4022634 141.327904,62.1927003 L141.327904,62.1927003 Z M149.118173,93.3169213 C143.953972,94.4183447 139.45728,97.9388942 136.851197,102.500789 C134.23712,106.846405 133.689523,112.149258 134.27709,117.107665 C135.036532,123.107419 138.637882,128.690634 143.854045,131.754593 C148.21084,134.333926 153.5669,134.858605 158.467296,133.845295 C164.291011,132.615706 169.223383,128.290116 171.617622,122.887134 C173.620149,118.317229 173.887952,113.10249 172.892684,108.248217 C171.789495,102.837224 168.300062,97.9669304 163.515582,95.223385 C159.190763,92.7682122 153.930633,92.2915963 149.118173,93.3169213 L149.118173,93.3169213 Z" id="Shape" fill="#F62459"></path>
                <path d="M275,159 C288.807119,159 300,147.807119 300,134 C300,120.192881 288.807119,109 275,109 C261.192881,109 250,120.192881 250,134 C250,147.807119 261.192881,159 275,159 Z" id="Oval-2" fill="#34495E"></path>
                <path d="M25,159 C38.8071187,159 50,147.807119 50,134 C50,120.192881 38.8071187,109 25,109 C11.1928813,109 0,120.192881 0,134 C0,147.807119 11.1928813,159 25,159 Z" id="Oval-2-Copy" fill="#34495E"></path>
                <path d="M283.5,134 C283.5,60.2699859 223.730014,0.5 150,0.5 C76.2699859,0.5 16.5,60.2699859 16.5,134 C16.5,207.730014 76.2699859,267.5 150,267.5 C223.730014,267.5 283.5,207.730014 283.5,134 Z M33.5,134 C33.5,69.6588266 85.6588266,17.5 150,17.5 C214.341173,17.5 266.5,69.6588266 266.5,134 C266.5,198.341173 214.341173,250.5 150,250.5 C85.6588266,250.5 33.5,198.341173 33.5,134 Z" id="Oval" fill="#34495E"></path>
            </g>
        </g>
    </g>
</svg>