<?xml version="1.0" encoding="UTF-8" standalone="no"?>
<svg width="487px" height="505px" viewBox="0 0 487 505" version="1.1" xmlns="http://www.w3.org/2000/svg" xmlns:xlink="http://www.w3.org/1999/xlink">
    <!-- Generator: Sketch 39 (31667) - http://www.bohemiancoding.com/sketch -->
    <title>logo</title>
    <desc>Created with Sketch.</desc>
    <defs></defs>
    <g id="Page-1" stroke="none" stroke-width="1" fill="none" fill-rule="evenodd">
        <g id="logo">
            <g id="panza-logo" transform="translate(42.000000, 349.000000)" fill="#F62459">
                <path d="M30.8447415,1.18255319 C39.0450665,-0.40212766 47.7590251,0.0655319149 55.5644756,3.16042553 C60.1188922,5.01319149 64.3704727,7.67319149 67.8887149,11.1314894 C73.3664845,16.4782979 77.1756869,23.4991489 78.7759675,30.9906383 C80.2842097,38.4910638 79.78839,46.4085106 77.2528804,53.6319149 C74.8569129,60.4234043 70.5875185,66.5893617 64.8662925,70.9770213 C59.8635598,74.8851064 53.8394978,77.5212766 47.5304136,78.2838298 C41.8834121,78.9897872 35.9543575,78.7455319 30.6458198,76.5204255 C28.6744165,75.7012766 26.7772378,74.6557447 25.0789808,73.3540426 C25.0997637,86.186383 25.0849188,99.0187234 25.0878877,111.851064 C16.7747415,111.854043 8.46159527,111.854043 0.14844904,111.851064 C0.151418021,87.8782979 0.139542097,63.9025532 0.154387001,39.9297872 C0.22267356,34.0676596 1.23212703,28.1548936 3.72903988,22.82 C6.70692762,16.0880851 11.6977843,10.2468085 17.9563959,6.38340426 C21.9051403,3.91106383 26.2695421,2.08212766 30.8447415,1.18255319 L30.8447415,1.18255319 Z M36.6312851,24.3302128 C32.7953619,25.1493617 29.4552585,27.7676596 27.519483,31.1604255 C25.5777696,34.3923404 25.1710192,38.3361702 25.6074594,42.0238298 C26.1715657,46.4859574 28.8466174,50.6382979 32.7211374,52.9170213 C35.9573264,54.8353191 39.9357607,55.2255319 43.5757312,54.4719149 C47.9015362,53.5574468 51.5652585,50.3404255 53.343678,46.3221277 C54.8311374,42.9234043 55.0300591,39.0451064 54.2907829,35.4348936 C53.4713442,31.4106383 50.8794239,27.7885106 47.3255539,25.7480851 C44.1131167,23.9221277 40.205938,23.5676596 36.6312851,24.3302128 L36.6312851,24.3302128 Z" id="Shape"></path>
                <path d="M108.958626,2.95191489 C114.602659,0.750638298 120.751418,0.029787234 126.772511,0.408085106 C139.491625,1.01574468 151.994003,8.02170213 158.365436,19.2217021 C162.032127,25.34 163.745229,32.4978723 163.789764,39.6051064 C163.849143,52.1187234 163.798671,64.6353191 163.816484,77.1489362 L139.467873,77.1489362 C139.473811,74.9268085 139.453028,72.7046809 139.479749,70.4825532 C136.169335,74.5902128 131.368493,77.5391489 126.098552,78.1617021 C116.17325,79.4425532 105.618523,76.8778723 97.8338552,70.4348936 C90.2273264,64.2868085 85.6491581,54.8770213 84.5417282,45.2259574 C83.3719498,36.2719149 84.9662925,26.8531915 89.6543131,19.0846809 C93.9415214,11.6497872 100.96613,5.94851064 108.958626,2.95191489 L108.958626,2.95191489 Z M120.377326,24.3182979 C116.728449,25.0748936 113.545702,27.4995745 111.592112,30.6451064 C109.374284,34.1808511 108.863619,38.586383 109.519764,42.6553191 C110.214505,47.0370213 112.984564,51.0374468 116.867991,53.1702128 C120.101211,54.9068085 123.9787,55.2225532 127.523663,54.406383 C131.674298,53.4531915 135.189572,50.4 137.024402,46.5842553 C138.621713,43.2480851 138.83548,39.3817021 138.182304,35.7804255 C137.383648,31.4702128 134.55421,27.5948936 130.67969,25.5604255 C127.544446,23.9012766 123.812437,23.6034043 120.377326,24.3182979 L120.377326,24.3182979 Z" id="Shape"></path>
                <path d="M198.761388,1.11404255 C207.00031,-0.434893617 215.735052,0.169787234 223.513781,3.40170213 C227.13,4.98340426 230.579956,7.01787234 233.51034,9.68680851 C240.220236,15.626383 244.278833,24.3689362 244.786529,33.3051064 C245.098272,39.8731915 244.872629,46.4531915 244.940916,53.027234 L244.940916,77.1489362 L219.333456,77.1489362 L219.333456,39.3042553 C219.315643,37.6421277 219.398774,35.9770213 219.214697,34.3208511 C218.790133,30.2787234 216.049764,26.6268085 212.359321,24.9855319 C207.905849,23.0582979 202.083678,23.8089362 198.886086,27.6812766 C197.018597,29.7931915 196.068523,32.6319149 196.104151,35.4408511 C196.101182,49.3425532 196.101182,63.2442553 196.104151,77.1459574 C187.592083,77.1489362 179.077046,77.1489362 170.564978,77.1489362 C170.567947,65.5319149 170.564978,53.9119149 170.567947,42.2948936 C170.603575,37.4038298 170.306677,32.4382979 171.449734,27.6395745 C172.622482,22.26 175.098612,17.1782979 178.593102,12.933617 C183.640369,6.74978723 190.982659,2.65106383 198.761388,1.11404255 L198.761388,1.11404255 Z" id="Shape"></path>
                <path d="M352.343796,1.31957447 C359.421846,-0.232340426 366.888833,-0.0029787234 373.871876,1.93617021 C379.245731,3.54170213 384.331595,6.20170213 388.589114,9.88042553 C395.254476,15.5906383 399.678257,23.767234 401.133058,32.4144681 C401.786233,36.2659574 401.789202,40.1919149 401.777326,44.0880851 L401.777326,77.1489362 L377.428715,77.1489362 C377.428715,74.9238298 377.431684,72.7017021 377.428715,70.4765957 C375.745303,72.5468085 373.732334,74.3608511 371.410591,75.6774468 C368.135805,77.6404255 364.279099,78.3702128 360.508493,78.4685106 C354.436928,78.593617 348.25551,77.5689362 342.780709,74.8523404 C337.017917,72.1029787 332.050812,67.7182979 328.56226,62.3595745 C325.06777,57.0306383 323.087459,50.787234 322.410532,44.4723404 C321.591093,37.0165957 322.633205,29.313617 325.79517,22.4893617 C330.649453,11.7302128 340.898375,3.80978723 352.343796,1.31957447 L352.343796,1.31957447 Z M358.183781,24.3510638 C352.753516,25.5574468 348.510842,30.3770213 347.55483,35.8131915 C346.886809,39.48 347.159956,43.4089362 348.795864,46.7957447 C350.35161,49.9561702 353.050414,52.5804255 356.343013,53.8642553 C359.071507,54.9217021 362.108774,55.0646809 364.967903,54.5225532 C370.214092,53.5246809 374.566617,49.2234043 375.911566,44.0791489 C376.665687,41.1987234 376.683501,38.1187234 376.021418,35.2204255 C375.038685,30.7940426 371.861876,26.912766 367.711241,25.113617 C364.727415,23.832766 361.33387,23.6659574 358.183781,24.3510638 L358.183781,24.3510638 Z" id="Shape"></path>
                <path d="M251.543929,1.78723404 L319.536558,1.78723404 C319.542496,9.12382979 319.527651,16.4604255 319.545465,23.7940426 C308.189114,34.3238298 296.806041,44.8208511 285.425938,55.3238298 C296.969335,55.3387234 308.512733,55.3268085 320.05613,55.3297872 L320.05613,77.1489362 L251.247031,77.1489362 C251.25,69.8570213 251.247031,62.5680851 251.247031,55.2791489 C262.650886,44.6570213 274.081462,34.0646809 285.503131,23.4634043 C274.185377,23.4544681 262.864653,23.4634043 251.546898,23.4574468 C251.543929,16.2340426 251.546898,9.0106383 251.543929,1.78723404 L251.543929,1.78723404 Z" id="Shape"></path>
            </g>
            <g id="panza-icon" transform="translate(92.000000, 44.000000)">
                <path d="M141.327904,62.1927003 C152.367782,60.0619468 164.099153,60.6907594 174.607422,64.852137 C180.738912,67.3433564 186.462701,70.9199784 191.199217,75.5699874 C198.573792,82.759278 203.70202,92.1994773 205.856435,102.272494 C207.886941,112.357527 207.219432,123.003284 203.805943,132.715835 C200.580316,141.847636 194.832544,150.13835 187.13021,156.037974 C180.395165,161.292765 172.285131,164.837345 163.791379,165.86267 C156.188972,166.811897 148.206843,166.483472 141.060101,163.491606 C138.406053,162.390183 135.851932,160.984366 133.565614,159.234104 C133.593593,176.488402 133.573608,193.742699 133.577605,210.996996 C122.385838,211.001001 111.194071,211.001001 100.002304,210.996996 C100.006301,178.763341 99.9903125,146.525682 100.010298,114.292027 C100.10223,106.409841 101.461231,98.459567 104.822758,91.2862972 C108.831809,82.2345999 115.550866,74.3804502 123.976668,69.1857372 C129.292757,65.8614413 135.168435,63.4022634 141.327904,62.1927003 L141.327904,62.1927003 Z M149.118173,93.3169213 C143.953972,94.4183447 139.45728,97.9388942 136.851197,102.500789 C134.23712,106.846405 133.689523,112.149258 134.27709,117.107665 C135.036532,123.107419 138.637882,128.690634 143.854045,131.754593 C148.21084,134.333926 153.5669,134.858605 158.467296,133.845295 C164.291011,132.615706 169.223383,128.290116 171.617622,122.887134 C173.620149,118.317229 173.887952,113.10249 172.892684,108.248217 C171.789495,102.837224 168.300062,97.9669304 163.515582,95.223385 C159.190763,92.7682122 153.930633,92.2915963 149.118173,93.3169213 L149.118173,93.3169213 Z" id="Shape" fill="#F62459"></path>
                <path d="M275,159 C288.807119,159 300,147.807119 300,134 C300,120.192881 288.807119,109 275,109 C261.192881,109 250,120.192881 250,134 C250,147.807119 261.192881,159 275,159 Z" id="Oval-2" fill="#34495E"></path>
                <path d="M25,159 C38.8071187,159 50,147.807119 50,134 C50,120.192881 38.8071187,109 25,109 C11.1928813,109 0,120.192881 0,134 C0,147.807119 11.1928813,159 25,159 Z" id="Oval-2-Copy" fill="#34495E"></path>
                <path d="M283.5,134 C283.5,60.2699859 223.730014,0.5 150,0.5 C76.2699859,0.5 16.5,60.2699859 16.5,134 C16.5,207.730014 76.2699859,267.5 150,267.5 C223.730014,267.5 283.5,207.730014 283.5,134 Z M33.5,134 C33.5,69.6588266 85.6588266,17.5 150,17.5 C214.341173,17.5 266.5,69.6588266 266.5,134 C266.5,198.341173 214.341173,250.5 150,250.5 C85.6588266,250.5 33.5,198.341173 33.5,134 Z" id="Oval" fill="#34495E"></path>
            </g>
        </g>
    </g>
</svg>